<svg xmlns="http://www.w3.org/2000/svg" width="460" height="300" viewBox="0 0 460 300">
<rect width="460" height="300" rx="12" fill="#0d1117" stroke="#21262d"/>
<text x="24" y="36" font-family="Segoe UI,Helvetica,Arial" font-size="16" font-weight="700" fill="#c9d1d9">Most Used Languages</text>
<rect x="24.0" y="52" width="249.2" height="10" fill="#3572A5" rx="2"/>
<rect x="272.7" y="52" width="116.0" height="10" fill="#563D7C" rx="2"/>
<rect x="388.2" y="52" width="16.6" height="10" fill="#E34C26" rx="2"/>
<rect x="404.3" y="52" width="16.4" height="10" fill="#3178C6" rx="2"/>
<rect x="420.1" y="52" width="12.9" height="10" fill="#00ADD8" rx="2"/>
<rect x="432.6" y="52" width="3.8" height="10" fill="#DA5B0B" rx="2"/>
<rect x="435.9" y="52" width="0.6" height="10" fill="#00B4AB" rx="2"/>
<circle cx="29" cy="87" r="5" fill="#3572A5"/>
<text x="42" y="92" font-family="Segoe UI" font-size="12.5" fill="#c9d1d9">Python</text>
<text x="220" y="92" text-anchor="end" font-family="Segoe UI" font-size="11.5" fill="#8b949e">60%</text>
<circle cx="239" cy="87" r="5" fill="#563D7C"/>
<text x="252" y="92" font-family="Segoe UI" font-size="12.5" fill="#c9d1d9">CSS</text>
<text x="430" y="92" text-anchor="end" font-family="Segoe UI" font-size="11.5" fill="#8b949e">28%</text>
<circle cx="29" cy="117" r="5" fill="#E34C26"/>
<text x="42" y="122" font-family="Segoe UI" font-size="12.5" fill="#c9d1d9">HTML</text>
<text x="220" y="122" text-anchor="end" font-family="Segoe UI" font-size="11.5" fill="#8b949e">3%</text>
<circle cx="239" cy="117" r="5" fill="#3178C6"/>
<text x="252" y="122" font-family="Segoe UI" font-size="12.5" fill="#c9d1d9">TypeScript</text>
<text x="430" y="122" text-anchor="end" font-family="Segoe UI" font-size="11.5" fill="#8b949e">3%</text>
<circle cx="29" cy="147" r="5" fill="#00ADD8"/>
<text x="42" y="152" font-family="Segoe UI" font-size="12.5" fill="#c9d1d9">Go</text>
<text x="220" y="152" text-anchor="end" font-family="Segoe UI" font-size="11.5" fill="#8b949e">3%</text>
<circle cx="239" cy="147" r="5" fill="#DA5B0B"/>
<text x="252" y="152" font-family="Segoe UI" font-size="12.5" fill="#c9d1d9">Jupyter Notebook</text>
<text x="430" y="152" text-anchor="end" font-family="Segoe UI" font-size="11.5" fill="#8b949e">0%</text>
<circle cx="29" cy="177" r="5" fill="#00B4AB"/>
<text x="42" y="182" font-family="Segoe UI" font-size="12.5" fill="#c9d1d9">Dart</text>
<text x="220" y="182" text-anchor="end" font-family="Segoe UI" font-size="11.5" fill="#8b949e">0%</text>
</svg>